<?xml version="1.0" encoding="utf-8"?>
<!-- Generator: Adobe Illustrator 25.4.1, SVG Export Plug-In . SVG Version: 6.00 Build 0)  -->
<svg height='100px' width='100px' version="1.1" id="Layer_1" xmlns="http://www.w3.org/2000/svg" xmlns:xlink="http://www.w3.org/1999/xlink" x="0px" y="0px"
	 viewBox="0 0 100 100" style="enable-background:new 0 0 100 100;" xml:space="preserve"   fill="#ffffff">
<g>
	<path d="M48.6,33.8c0-6.7-4.3-12.7-10.6-15.1c-6.2-2.3-13.6-0.3-17.8,4.8c-4.3,5.2-4.9,12.7-1.4,18.5c3.5,5.8,10.3,8.8,16.9,7.4
		c6.4-1.3,11.6-6.7,12.6-13.1C48.5,35.5,48.6,34.7,48.6,33.8C48.6,33.9,48.6,33.8,48.6,33.8z"/>
	<path d="M65.3,79.2c0-3.9-0.8-7.6-2.4-11.1c-3.3-7.3-10.1-12.7-17.9-14.4c-2.5-0.5-5-0.6-7.6-0.6c-2.8,0-5.5,0-8.3,0
		c-2.3,0-4.6-0.1-6.8,0.3c-3.9,0.6-7.7,2-11,4.3C4.6,62.2,0.3,69.8,0,77.9c0,1.2,0,2.4,0,3.7c0,1.9,1.1,3.7,2.8,4.5
		c1.1,0.5,2.2,0.5,3.4,0.5c3.7,0,7.3,0,11,0c5.7,0,11.3,0,17,0c5.5,0,11,0,16.5,0c3.1,0,6.2,0,9.3,0c0.1,0,0.3,0,0.4,0
		c2.2,0,4.1-1.4,4.7-3.6C65.4,81.8,65.3,80.4,65.3,79.2z"/>
	<path d="M86.3,39.1c0-5-3.2-9.5-7.8-11.2c-4.7-1.8-10.2-0.3-13.4,3.6c-3.2,3.9-3.7,9.5-1,13.8c2.6,4.3,7.7,6.5,12.6,5.6
		c4.8-0.9,8.8-5,9.5-9.9C86.3,40.4,86.3,39.8,86.3,39.1C86.3,39.1,86.3,39.1,86.3,39.1z"/>
	<path d="M100,78.9C100,78.9,100,78.9,100,78.9c0-8.7-4.2-17.4-11.9-21.8c-3.1-1.8-6.7-2.7-10.3-2.7c-2.5,0-5.1,0-7.7,0
		c-1.1,0-2.3,0-3.4,0c-2.6,0-5.2,0.5-7.7,1.5c-0.5,0.2-0.8,1.1-0.2,1.4C64,59.6,67.6,64.5,69,70c0.9,3.6,0.6,7.4,0.6,11.1
		c0,1.4,0,2.8,0,4.2c0,0.4,0.3,0.7,0.7,0.7c4,0,8.1,0,12.1,0c4.4,0,8.9,0,13.3,0c1.9,0,3.4-1.2,4-3C100.1,81.8,100,80.3,100,78.9z"
		/>
</g>
</svg>
